# xmcd CD database file
#
# Track frame offsets:
#	150
#	10732
#	21120
#	34227
#	52630
#	65002
#	81190
#	94720
#	107362
#	117635
#	134982
#	148117
#	161997
#	174797
#	188255
#	199405
#	213315
#
# Disc length: 3049 seconds
#
# Revision: 0
# Processed by: cddbd v1.4PL0 Copyright (c) Steve Scherf et al.
# Submitted via: CDex 1.50beta10
#
DISCID=ea0be711
DTITLE=Sarah Vaughan - Sophisticated Cissy
DYEAR=1995
DGENRE=Jazz
TTITLE0=Have You Met Miss Jones
TTITLE1=You Stepped Out of A Dream
TTITLE2=Hands Across the Table
TTITLE3=In A Sentimental Mood
TTITLE4=My Favorite Things
TTITLE5=You've Changed
TTITLE6=Star Eyes
TTITLE7=My Ideal
TTITLE8=When Your Lover Has Gone
TTITLE9=Sophisticated Cissy
TTITLE10=Dreamy
TTITLE11=The More I See You
TTITLE12=I'll Be Seeing You
TTITLE13=Trees
TTITLE14=Why Was I Born
TTITLE15=Crazy He Calls Me
TTITLE16=Stormy Weather
EXTD=YEAR: 1995
EXTT0=
EXTT1=
EXTT2=
EXTT3=
EXTT4=
EXTT5=
EXTT6=
EXTT7=
EXTT8=
EXTT9=
EXTT10=
EXTT11=
EXTT12=
EXTT13=
EXTT14=
EXTT15=
EXTT16=
PLAYORDER=
